<svg width="20" height="20" viewBox="0 0 20 20" fill="none" xmlns="http://www.w3.org/2000/svg">
<path d="M1.42857 11.25V3.57143C1.42857 2.37143 2.37143 1.42857 3.57143 1.42857H16.4286C17.6286 1.42857 18.5714 2.37143 18.5714 3.57143V4.91143M1.42857 11.25V16.4286C1.42857 17.6286 2.37143 18.5714 3.57143 18.5714H16.4286C17.6286 18.5714 18.5714 17.6286 18.5714 16.4286V4.91143M1.42857 11.25L3.88428 7.94715L8.25998 11.7414L15.7143 2.32143L18.5714 4.91143M1.42857 11.25L8.92857 17.6786L18.5714 4.91143M3.57143 0C2.62492 0.00226348 1.71787 0.379258 1.04858 1.04854C0.379301 1.71782 0.00226348 2.62492 0 3.57143V16.4286C0 18.3943 1.60571 20 3.57143 20H16.4286C18.3957 20 20 18.3943 20 16.4286V3.57143C20 1.60571 18.3957 0 16.4286 0H3.57143Z" fill="#333333" fill-opacity="0.8"/>
<path d="M1.42857 11.25V3.57143C1.42857 2.37143 2.37143 1.42857 3.57143 1.42857H16.4286C17.6286 1.42857 18.5714 2.37143 18.5714 3.57143V4.91143M1.42857 11.25V16.4286C1.42857 17.6286 2.37143 18.5714 3.57143 18.5714H16.4286C17.6286 18.5714 18.5714 17.6286 18.5714 16.4286V4.91143M1.42857 11.25L3.88428 7.94715L8.25998 11.7414L15.7143 2.32143L18.5714 4.91143M1.42857 11.25L8.92857 17.6786L18.5714 4.91143M3.57143 0C2.62492 0.00226348 1.71787 0.379258 1.04858 1.04854C0.379301 1.71782 0.00226348 2.62492 0 3.57143V16.4286C0 18.3943 1.60571 20 3.57143 20H16.4286C18.3957 20 20 18.3943 20 16.4286V3.57143C20 1.60571 18.3957 0 16.4286 0H3.57143Z" stroke="black"/>
</svg>
