<svg width="100" height="54" viewBox="0 0 100 54" fill="none" xmlns="http://www.w3.org/2000/svg">
<path d="M20.6782 30.8764C20.821 30.9002 20.9638 30.9002 21.0948 30.9002H28.9865C29.1293 30.8883 29.2721 30.8883 29.4031 30.8764C29.6769 30.8407 29.9506 30.7574 30.2125 30.6503C31.5575 30.067 32.2955 28.5553 32.0098 27.1865C31.7718 26.0676 30.9029 25.1392 29.8197 24.8416C29.6888 24.8059 29.5459 24.7821 29.4031 24.7583C29.2602 24.7464 29.1174 24.7345 28.9865 24.7345H21.0948C20.7258 24.7583 20.6186 24.7464 20.2616 24.8535C19.9878 24.9249 19.7259 25.044 19.4879 25.1868C18.3928 25.8534 17.8095 27.2222 18.0714 28.4601C18.3333 29.7099 19.4283 30.7098 20.6782 30.8764Z" fill="white"/>
<path d="M2.66892 6.15387C2.81176 6.17767 2.95459 6.17767 3.08553 6.17767H10.9772C11.1201 6.16577 11.2629 6.16577 11.3938 6.15387C11.6676 6.11816 11.9414 6.03484 12.2033 5.92771C13.5483 5.34446 14.2863 3.83278 14.0006 2.46393C13.7625 1.34504 12.8936 0.416606 11.8104 0.11903C11.6795 0.0714182 11.5367 0.0595152 11.3938 0.0238061C11.2629 0.0238061 11.1201 0.011903 10.9772 0H3.08553C2.71653 0.0238061 2.60941 0.011903 2.25231 0.11903C1.97854 0.190449 1.72858 0.297576 1.47862 0.452315C0.383538 1.11889 -0.19971 2.48773 0.0621563 3.71375C0.324023 4.98737 1.4191 5.97532 2.66892 6.15387Z" fill="white"/>
<path d="M9.5966 24.8416C9.46567 24.8059 9.32283 24.7821 9.17999 24.7583C9.03716 24.7464 8.89432 24.7345 8.76339 24.7345H4.4902C4.1212 24.7583 4.01408 24.7464 3.65699 24.8535C3.38322 24.9249 3.12135 25.044 2.88329 25.1868C1.78821 25.8534 1.20496 27.2222 1.46683 28.4601C1.72869 29.7218 2.82377 30.7217 4.07359 30.8883C4.21643 30.9121 4.35926 30.9121 4.4902 30.9121H8.75148C8.89432 30.9002 9.03716 30.9002 9.16809 30.8883C9.44186 30.8526 9.71563 30.7693 9.9775 30.6622C11.3225 30.0789 12.0605 28.5672 11.7749 27.1984C11.5487 26.0676 10.6798 25.1392 9.5966 24.8416Z" fill="white"/>
<path d="M25.0229 47.7668C24.892 47.7311 24.7491 47.7073 24.6063 47.6835C24.4635 47.6716 24.3206 47.6597 24.1897 47.6597H19.9284C19.5594 47.6835 19.4523 47.6716 19.0952 47.7787C18.8214 47.8501 18.5595 47.9692 18.3215 48.112C17.2264 48.7786 16.6432 50.1474 16.905 51.3853C17.1669 52.6471 18.262 53.6469 19.5118 53.8136C19.6546 53.8374 19.7975 53.8374 19.9284 53.8374H24.1897C24.3325 53.8255 24.4754 53.8255 24.6063 53.8136C24.8801 53.7779 25.1538 53.6945 25.4157 53.5874C26.7607 53.0042 27.4987 51.4925 27.2131 50.1236C26.975 48.9928 26.1061 48.0644 25.0229 47.7668Z" fill="white"/>
<path d="M100 14.6051C100 14.5813 100 14.5575 100 14.5337C100 14.4622 99.9881 14.3789 99.9762 14.3075C99.9048 13.8314 99.6905 13.3791 99.3573 13.022C99.1906 12.8434 99.1073 12.7839 98.9525 12.6768C98.9168 12.653 98.8811 12.6292 98.8454 12.6054C98.8335 12.5935 98.8216 12.5816 98.7978 12.5697L77.5747 0.321443C77.4676 0.273831 77.3605 0.214316 77.2533 0.166703C76.9557 0.0476731 76.8724 0.0595761 76.551 0.011964C76.4439 0.011964 76.3368 0.011964 76.2297 0.011964C76.2059 0.011964 76.1702 0.011964 76.1463 0.011964H24.1896C23.8206 0.0357701 23.7135 0.023867 23.3564 0.130994C23.0826 0.202413 22.8208 0.321443 22.5827 0.464279C21.4876 1.13085 20.9044 2.4997 21.1662 3.73761C21.4281 4.99934 22.5232 5.99919 23.773 6.16583C23.9158 6.18964 24.0587 6.18964 24.1896 6.18964H38.5447C38.6875 6.20154 38.9137 6.22535 39.0565 6.23725C39.1636 6.26106 39.2707 6.27296 39.366 6.30867C40.4491 6.60624 41.33 7.53468 41.5561 8.65357C41.8418 10.0224 41.1038 11.5341 39.7588 12.1173C39.4969 12.2245 39.2231 12.3078 38.9494 12.3435C38.8065 12.3673 38.6637 12.3673 38.5328 12.3673H3.08553C2.71653 12.3911 2.60941 12.3792 2.25231 12.4863C1.97854 12.5578 1.71668 12.6768 1.47862 12.8196C0.383538 13.4862 -0.19971 14.855 0.0621563 16.093C0.324023 17.3547 1.4191 18.3545 2.66892 18.5212C2.81176 18.545 2.95459 18.545 3.08553 18.545H45.7579C45.9007 18.5569 46.1269 18.5807 46.2697 18.5926C46.3769 18.6164 46.484 18.6283 46.5792 18.664C47.6624 18.9616 48.5432 19.89 48.7694 21.0089C49.055 22.3778 48.3171 23.8894 46.972 24.4727C46.7101 24.5798 46.4364 24.6631 46.1626 24.6989C46.0198 24.7227 45.8769 24.7227 45.746 24.7227H39.4017C39.0327 24.7465 38.9256 24.7346 38.5685 24.8417C38.2947 24.9131 38.0328 25.0321 37.7948 25.175C36.6997 25.8415 36.1164 27.2104 36.3783 28.4483C36.6402 29.71 37.7353 30.7099 38.9851 30.8765C39.1279 30.9003 39.2707 30.9003 39.4017 30.9003H55.0423C56.4111 30.9003 57.53 29.7815 57.53 28.4126V19.6401C57.53 19.283 57.9228 19.0568 58.2323 19.2354L69.1831 25.5559C72.1231 27.258 73.9324 30.3885 73.9324 33.7928V39.3277C73.9324 42.851 70.1234 45.053 67.0643 43.2914L58.0775 38.0898C57.7681 37.9112 57.5419 37.6136 57.4705 37.2685C57.2443 36.1377 56.2326 35.2926 55.0304 35.2926H15.9527C15.5837 35.3164 15.4766 35.3045 15.1195 35.4116C14.8457 35.483 14.5839 35.602 14.3458 35.7449C13.2507 36.4114 12.6675 37.7803 12.9293 39.0182C13.1912 40.2799 14.2863 41.2798 15.5361 41.4464C15.6789 41.4702 15.8218 41.4702 15.9527 41.4702H42.3417C42.4846 41.4821 42.7107 41.5059 42.8536 41.5178C42.9607 41.5416 43.0678 41.5536 43.163 41.5893C44.2462 41.8868 45.127 42.8153 45.3532 43.9342C45.6389 45.303 44.9009 46.8147 43.5558 47.3979C43.294 47.5051 43.0202 47.5884 42.7464 47.6241C42.6036 47.6479 42.4608 47.6479 42.3298 47.6479H34.5452C34.1762 47.6717 34.0691 47.6598 33.712 47.7669C33.4383 47.8384 33.1764 47.9574 32.9383 48.1002C31.8433 48.7668 31.26 50.1356 31.5219 51.3736C31.7837 52.6353 32.8788 53.6351 34.1286 53.8018C34.2715 53.8256 34.4143 53.8256 34.5452 53.8256H76.2059C76.2178 53.8256 76.2416 53.8256 76.2535 53.8256C76.2892 53.8256 76.3249 53.8256 76.3606 53.8256C76.4201 53.8256 76.4796 53.8256 76.5391 53.8137C76.5987 53.8137 76.6701 53.8018 76.7296 53.7899C76.9081 53.7661 77.0748 53.7185 77.2414 53.647C77.3009 53.6232 77.3604 53.5994 77.42 53.5637C77.4319 53.5637 77.4319 53.5637 77.4438 53.5518C77.6342 53.4685 77.8009 53.3733 77.9675 53.2542L98.7978 41.256C98.893 41.1846 99.0002 41.125 99.0954 41.0536C99.4763 40.7561 99.7501 40.3394 99.8929 39.8752C99.9881 39.5657 99.9762 39.4824 100 39.161V14.6527C100 14.6408 100 14.617 100 14.6051ZM77.1938 5.66591L92.1559 14.3075C92.4297 14.4622 92.4297 14.867 92.1559 15.0336L89.2159 16.7238C88.7159 17.0095 88.097 17.0095 87.5971 16.7238L72.7064 8.11793C72.3969 7.93938 72.3969 7.48707 72.7064 7.30852L75.5512 5.66591C76.063 5.36833 76.682 5.36833 77.1938 5.66591ZM75.5631 23.6633L60.6724 15.0693C60.3629 14.8908 60.3629 14.4384 60.6724 14.2599L63.5172 12.6173C64.0291 12.3197 64.648 12.3197 65.1598 12.6173L80.122 21.2589C80.3957 21.4136 80.3957 21.8183 80.122 21.985L77.1819 23.6752C76.682 23.949 76.063 23.949 75.5631 23.6633ZM95.1912 37.1375C95.1912 37.5303 94.9769 37.8993 94.6317 38.1017L80.4433 46.291C79.7053 46.7195 78.7769 46.1838 78.7769 45.3268V28.9482C78.7769 28.5554 78.9912 28.1864 79.3364 27.9841L83.1572 25.782C83.1572 28.6269 83.1572 32.6739 83.1691 34.6974C83.1691 35.2568 83.7762 35.6139 84.2642 35.3283L90.2157 31.9359C90.5847 31.7216 90.8109 31.3407 90.8109 30.9122V21.3541L93.5129 19.7948C94.2508 19.3663 95.1793 19.9019 95.1793 20.759V37.1375H95.1912Z" fill="white"/>
</svg>
