<svg width="20" height="20" viewBox="0 0 20 20" fill="none" xmlns="http://www.w3.org/2000/svg">
<path d="M10 11.6666H10.8333C11.75 11.6666 12.5 10.9166 12.5 9.99996V1.66663H5C3.75 1.66663 2.65834 2.35828 2.09167 3.37495" stroke="#00B74C" stroke-width="1.5" stroke-linecap="round" stroke-linejoin="round"/>
<path d="M1.66663 14.1666C1.66663 15.55 2.78329 16.6666 4.16663 16.6666H4.99996C4.99996 15.75 5.74996 15 6.66663 15C7.58329 15 8.33329 15.75 8.33329 16.6666H11.6666C11.6666 15.75 12.4166 15 13.3333 15C14.25 15 15 15.75 15 16.6666H15.8333C17.2166 16.6666 18.3333 15.55 18.3333 14.1666V11.6666H15.8333C15.375 11.6666 15 11.2916 15 10.8333V8.33329C15 7.87496 15.375 7.49996 15.8333 7.49996H16.9083L15.4833 5.0083C15.1833 4.49163 14.6333 4.16663 14.0333 4.16663H12.5V9.99996C12.5 10.9166 11.75 11.6666 10.8333 11.6666H9.99996" stroke="#00B74C" stroke-width="1.5" stroke-linecap="round" stroke-linejoin="round"/>
<path d="M6.66667 18.3333C7.58714 18.3333 8.33333 17.5871 8.33333 16.6667C8.33333 15.7462 7.58714 15 6.66667 15C5.74619 15 5 15.7462 5 16.6667C5 17.5871 5.74619 18.3333 6.66667 18.3333Z" stroke="#00B74C" stroke-width="1.5" stroke-linecap="round" stroke-linejoin="round"/>
<path d="M13.3333 18.3333C14.2538 18.3333 15 17.5871 15 16.6667C15 15.7462 14.2538 15 13.3333 15C12.4128 15 11.6666 15.7462 11.6666 16.6667C11.6666 17.5871 12.4128 18.3333 13.3333 18.3333Z" stroke="#00B74C" stroke-width="1.5" stroke-linecap="round" stroke-linejoin="round"/>
<path d="M18.3333 10V11.6667H15.8333C15.375 11.6667 15 11.2917 15 10.8333V8.33333C15 7.875 15.375 7.5 15.8333 7.5H16.9083L18.3333 10Z" stroke="#00B74C" stroke-width="1.5" stroke-linecap="round" stroke-linejoin="round"/>
<path d="M1.66663 6.66663H6.66663" stroke="#00B74C" stroke-width="1.5" stroke-linecap="round" stroke-linejoin="round"/>
<path d="M1.66663 9.16663H4.99996" stroke="#00B74C" stroke-width="1.5" stroke-linecap="round" stroke-linejoin="round"/>
<path d="M1.66663 11.6666H3.33329" stroke="#00B74C" stroke-width="1.5" stroke-linecap="round" stroke-linejoin="round"/>
</svg>
